HIERARCHY
ROOT Hips
{
 OFFSET 0.000000 0.000000 0.000000
 CHANNELS 6 Xposition Yposition Zposition Yrotation Xrotation Zrotation
 JOINT Chest
 {
  OFFSET 0.000000 9.585900 0.002600
  CHANNELS 3 Yrotation Xrotation Zrotation
  JOINT Chest2
  {
   OFFSET 0.000000 9.601200 -0.005300
   CHANNELS 3 Yrotation Xrotation Zrotation
   JOINT Chest3
   {
    OFFSET 0.000000 9.561800 0.000000
    CHANNELS 3 Yrotation Xrotation Zrotation
    JOINT Chest4
    {
     OFFSET 0.000000 9.552100 0.000000
     CHANNELS 3 Yrotation Xrotation Zrotation
     JOINT Neck
     {
      OFFSET 0.000000 14.453000 0.000000
      CHANNELS 3 Yrotation Xrotation Zrotation
      JOINT Head
      {
       OFFSET 0.000000 8.936500 -0.011300
       CHANNELS 3 Yrotation Xrotation Zrotation
       End Site
       {
        OFFSET 0.000000 17.073600 -0.006000
       }
      }
     }
     JOINT RightCollar
     {
      OFFSET -2.921100 9.558500 0.000000
      CHANNELS 3 Yrotation Xrotation Zrotation
      JOINT RightShoulder
      {
       OFFSET -13.519700 0.000000 0.000000
       CHANNELS 3 Yrotation Xrotation Zrotation
       JOINT RightElbow
       {
        OFFSET 0.000000 -29.696600 0.000000
        CHANNELS 3 Yrotation Xrotation Zrotation
        JOINT RightWrist
        {
         OFFSET 0.000000 -24.004700 0.000000
         CHANNELS 3 Yrotation Xrotation Zrotation
         End Site
         {
          OFFSET 0.000000 -17.728500 0.000000
         }
        }
       }
      }
     }
     JOINT LeftCollar
     {
      OFFSET 2.921100 9.558500 0.000000
      CHANNELS 3 Yrotation Xrotation Zrotation
      JOINT LeftShoulder
      {
       OFFSET 13.519700 0.000000 0.000000
       CHANNELS 3 Yrotation Xrotation Zrotation
       JOINT LeftElbow
       {
        OFFSET 0.000000 -29.696600 0.000000
        CHANNELS 3 Yrotation Xrotation Zrotation
        JOINT LeftWrist
        {
         OFFSET 0.000000 -24.004700 0.000000
         CHANNELS 3 Yrotation Xrotation Zrotation
         End Site
         {
          OFFSET 0.000000 -17.728500 0.000000
         }
        }
       }
      }
     }
    }
   }
  }
 }
 JOINT RightHip
 {
  OFFSET -7.771700 -0.012900 -0.001300
  CHANNELS 3 Yrotation Xrotation Zrotation
  JOINT RightKnee
  {
   OFFSET 0.000000 -40.869800 0.001200
   CHANNELS 3 Yrotation Xrotation Zrotation
   JOINT RightAnkle
   {
    OFFSET 0.000000 -39.717900 0.002100
    CHANNELS 3 Yrotation Xrotation Zrotation
    JOINT RightToe
    {
     OFFSET 0.000000 -4.965400 11.033500
     CHANNELS 3 Yrotation Xrotation Zrotation
     End Site
     {
      OFFSET 0.000000 -1.423100 5.872300
     }
    }
   }
  }
 }
 JOINT LeftHip
 {
  OFFSET 7.771700 -0.012900 -0.001300
  CHANNELS 3 Yrotation Xrotation Zrotation
  JOINT LeftKnee
  {
   OFFSET 0.000000 -40.869800 0.001200
   CHANNELS 3 Yrotation Xrotation Zrotation
   JOINT LeftAnkle
   {
    OFFSET 0.000000 -39.717900 0.002100
    CHANNELS 3 Yrotation Xrotation Zrotation
    JOINT LeftToe
    {
     OFFSET 0.000000 -4.965400 11.033500
     CHANNELS 3 Yrotation Xrotation Zrotation
     End Site
     {
      OFFSET 0.000000 -1.423100 5.872300
     }
    }
   }
  }
 }
}
MOTION
Frames: 15
Frame Time: 0.008333
-214.678531 58.031549 26.211654 175.124097 -51.764122 -3.753439 4.765684 22.767026 3.661394 2.457157 13.060010 1.887352 3.154487 16.306931 2.468767 2.451628 13.037081 1.927572 0.961992 14.219148 0.328367 1.560205 -9.422035 0.344130 2.747594 2.718161 0.233439 -2.948672 -15.338243 -7.821343 78.869921 -85.630942 -52.321135 27.284341 24.680676 3.342319 -9.312667 2.640985 1.081286 16.497075 -22.759093 -6.253504 71.696769 -39.989021 -85.499119 22.452276 -21.458991 24.724458 3.567797 -20.158701 -1.901327 -36.073849 73.430187 -38.458628 5.055919 -12.845854 10.087481 -0.034577 -0.149334 -0.001077 -5.046891 -19.373833 9.661801 53.849936 78.643009 52.085296 4.484639 -15.154923 -16.532267 0.064595 0.096104 0.033689
-214.680698 58.030012 26.208044 175.140789 -51.753604 -3.762902 4.765712 22.765315 3.650910 2.450688 13.053527 1.893783 3.157259 16.322118 2.447182 2.451911 13.056746 1.887465 0.939615 14.177009 0.399676 1.484693 -9.446909 0.423867 2.774185 2.635708 0.277535 -2.473573 -15.449625 -8.148432 74.235966 -85.434233 -47.534235 27.675238 24.913184 4.270133 -9.318339 2.544389 1.078673 16.299361 -22.781799 -6.120715 71.147088 -39.816902 -85.116620 22.440390 -21.447259 24.723020 3.556014 -20.170848 -1.901141 -36.089695 73.436958 -38.484748 5.045016 -12.845502 10.096644 -0.025857 -0.154126 -0.003341 -5.049717 -19.387676 9.662907 53.840780 78.650687 52.079293 4.477515 -15.154258 -16.530581 0.068590 0.093116 0.035983
-214.682105 58.028006 26.204628 175.163032 -51.742891 -3.778094 4.760545 22.766138 3.640257 2.452140 13.056267 1.887536 3.157669 16.322222 2.447152 2.452379 13.059895 1.882530 0.904295 14.163057 0.426736 1.415352 -9.471201 0.497388 2.795606 2.586432 0.286757 -1.998111 -15.563249 -8.485165 69.047894 -85.271697 -42.195941 28.117802 25.098128 5.049461 -9.321779 2.496223 1.066154 16.101838 -22.833553 -6.031323 70.600078 -39.656439 -84.757880 22.425847 -21.428912 24.714854 3.536615 -20.183027 -1.892882 -36.117413 73.441569 -38.528209 5.033069 -12.849907 10.103248 -0.016952 -0.156140 -0.000516 -5.053663 -19.401835 9.667447 53.819302 78.660869 52.063107 4.467165 -15.155014 -16.527268 0.079301 0.090638 0.038355
-214.681226 58.026337 26.200978 175.167280 -51.738534 -3.789990 4.772090 22.769844 3.644768 2.459445 13.079221 1.869364 3.153104 16.293001 2.470239 2.452431 13.061114 1.880854 0.835379 14.182588 0.437045 1.379168 -9.506836 0.557106 2.803149 2.570082 0.289932 -1.518263 -15.684579 -8.832815 64.051858 -85.124494 -37.058354 28.636161 25.235108 5.684442 -9.326076 2.465679 1.036312 15.891602 -22.902791 -5.937874 70.048532 -39.509541 -84.410104 22.406313 -21.400233 24.701133 3.527170 -20.190634 -1.880024 -36.131741 73.447087 -38.550483 5.033045 -12.852997 10.103708 -0.015719 -0.157401 0.000666 -5.045525 -19.408004 9.693182 53.769972 78.682191 52.017716 4.457958 -15.160815 -16.523610 0.087426 0.087759 0.044119
-214.682245 58.024849 26.196551 175.165190 -51.739390 -3.783136 4.777552 22.784036 3.635518 2.465992 13.082909 1.864149 3.148793 16.300724 2.462306 2.453471 13.066243 1.874464 0.808212 14.170678 0.464067 1.310922 -9.526043 0.621396 2.840650 2.501269 0.304520 -1.082466 -15.768177 -9.171015 60.050835 -84.972673 -32.944359 29.189865 25.341465 6.207945 -9.324492 2.423615 1.039278 15.668405 -22.990952 -5.847743 69.495785 -39.378043 -84.071245 22.383809 -21.356517 24.682568 3.526764 -20.193546 -1.884332 -36.142464 73.455656 -38.568450 5.028977 -12.855928 10.098954 -0.019934 -0.158310 0.003204 -5.039970 -19.407917 9.692568 53.812335 78.684810 52.056256 4.451484 -15.165774 -16.520807 0.080983 0.085914 0.043836
-214.685683 58.024421 26.190666 175.176022 -51.750529 -3.769731 4.777717 22.805829 3.615066 2.459176 13.081917 1.862033 3.155986 16.318159 2.447920 2.454504 13.107190 1.843425 0.810699 14.106764 0.519648 1.214439 -9.517617 0.687396 2.882664 2.375007 0.347080 -0.681137 -15.823417 -9.503361 57.540153 -84.799741 -30.355929 29.728154 25.427148 6.638894 -9.325715 2.360046 1.095878 15.429751 -23.093664 -5.765607 68.951092 -39.260336 -83.748548 22.362598 -21.292560 24.658225 3.526382 -20.184953 -1.907078 -36.216677 73.472513 -38.653512 5.040570 -12.879357 10.106116 -0.024753 -0.159164 0.002611 -5.035860 -19.397415 9.673450 53.866192 78.683908 52.100470 4.441496 -15.173273 -16.512118 0.087363 0.086027 0.042563
-214.685714 58.023000 26.186101 175.188543 -51.753759 -3.777380 4.780526 22.819186 3.610488 2.455413 13.080300 1.862804 3.158984 16.336350 2.435210 2.455006 13.108625 1.840850 0.779244 14.105183 0.542207 1.201158 -9.535017 0.709547 2.905359 2.324776 0.362816 -0.283816 -15.903312 -9.832369 56.339453 -84.617145 -29.108742 30.241771 25.495132 6.977742 -9.323157 2.315344 1.084779 15.150243 -23.200932 -5.632330 68.415824 -39.149456 -83.444350 22.348707 -21.212187 24.631923 3.520029 -20.184194 -1.909031 -36.245292 73.483712 -38.687513 5.045941 -12.889380 10.107659 -0.027766 -0.161437 0.003237 -5.045685 -19.396164 9.685860 53.890207 78.698955 52.113893 4.430253 -15.178533 -16.506633 0.098252 0.082261 0.044092
-214.686127 58.020479 26.182538 175.196719 -51.748113 -3.778678 4.781925 22.826372 3.604629 2.455644 13.084931 1.857242 3.159104 16.341994 2.428242 2.459291 13.110300 1.837075 0.744887 14.107689 0.562342 1.110906 -9.517543 0.768342 2.951161 2.261650 0.375794 0.063432 -15.955253 -10.148351 55.942815 -84.449390 -28.702483 30.744084 25.540253 7.236679 -9.322668 2.258362 1.041071 14.822426 -23.311553 -5.446079 67.901956 -39.041205 -83.161507 22.347228 -21.116701 24.608868 3.519304 -20.191006 -1.915054 -36.263217 73.489139 -38.706633 5.047410 -12.896908 10.107909 -0.027188 -0.158943 -0.000091 -5.052924 -19.402527 9.689175 53.890721 78.704437 52.107421 4.424045 -15.178230 -16.502143 0.098040 0.081937 0.043602
-214.687140 58.017863 26.179353 175.216079 -51.739450 -3.784270 4.775517 22.829271 3.596216 2.455577 13.089031 1.852072 3.158795 16.347359 2.421844 2.466555 13.113066 1.832860 0.706378 14.114674 0.581040 1.020740 -9.493781 0.820217 3.039377 2.167717 0.373765 0.337344 -15.966193 -10.432545 55.979066 -84.307299 -28.769135 31.216190 25.567095 7.429361 -9.326908 2.207656 1.010049 14.465122 -23.432575 -5.260758 67.417923 -38.931536 -82.902472 22.357179 -21.012506 24.590728 3.514197 -20.197680 -1.926471 -36.277125 73.491451 -38.720549 5.046119 -12.905191 10.108884 -0.026722 -0.155033 -0.000805 -5.065202 -19.409958 9.686745 53.887085 78.703965 52.099943 4.409384 -15.181191 -16.502224 0.101913 0.086823 0.046368
-214.686985 58.016580 26.175877 175.220400 -51.738309 -3.783958 4.803377 22.853435 3.601958 2.444858 13.079257 1.849789 3.160405 16.350346 2.416739 2.463445 13.108006 1.835601 0.673291 14.129390 0.588867 0.953047 -9.479873 0.859006 3.079633 2.114806 0.373466 0.634854 -16.005378 -10.706841 56.042697 -84.187966 -28.885438 31.614125 25.588244 7.546925 -9.331873 2.180272 1.005085 14.092956 -23.573269 -5.100992 66.956946 -38.812219 -82.664745 22.371486 -20.910928 24.579125 3.515506 -20.195542 -1.928837 -36.281976 73.491773 -38.729403 5.045739 -12.919206 10.108735 -0.032706 -0.146407 0.000395 -5.068371 -19.408471 9.688364 53.873651 78.704545 52.084735 4.403439 -15.182953 -16.503367 0.104208 0.089538 0.047814
-214.687313 58.015135 26.173126 175.237283 -51.732236 -3.790423 4.801483 22.856094 3.598518 2.455528 13.092133 1.843658 3.154676 16.346909 2.415674 2.458595 13.093617 1.845340 0.642442 14.154994 0.588295 0.889958 -9.466344 0.888459 3.123646 2.076875 0.362143 0.900445 -16.044348 -10.954076 55.675411 -84.090857 -28.574776 31.912525 25.608428 7.582902 -9.331829 2.162700 0.987842 13.688396 -23.724066 -4.926005 66.521367 -38.679542 -82.444861 22.380678 -20.810431 24.571433 3.505285 -20.196945 -1.931939 -36.291907 73.489365 -38.747762 5.044011 -12.931534 10.114813 -0.035563 -0.139363 -0.001707 -5.077580 -19.412852 9.685503 53.856429 78.701467 52.066650 4.396917 -15.182774 -16.502910 0.106627 0.093087 0.048137
-214.687957 58.014527 26.170419 175.256473 -51.728830 -3.796788 4.789988 22.856427 3.590863 2.460388 13.095555 1.842768 3.184265 16.367474 2.403020 2.444765 13.082051 1.855206 0.586481 14.187998 0.587614 0.845479 -9.475785 0.918583 3.148890 2.029794 0.362622 1.144643 -16.085469 -11.171708 54.578313 -84.024966 -27.534438 32.115238 25.623438 7.552477 -9.346532 2.125209 0.970327 13.250970 -23.877576 -4.718597 66.112419 -38.539031 -82.235506 22.379203 -20.708456 24.559366 3.491350 -20.195804 -1.936324 -36.293738 73.490728 -38.760873 5.039870 -12.942814 10.121532 -0.036951 -0.134363 -0.002954 -5.086700 -19.415699 9.677788 53.852145 78.699852 52.063768 4.397816 -15.181626 -16.506529 0.104649 0.094697 0.049704
-214.689306 58.012948 26.169122 175.279492 -51.714690 -3.803217 4.788562 22.852505 3.583793 2.478574 13.109771 1.838162 3.170936 16.356471 2.406367 2.465523 13.096366 1.839518 0.541373 14.181131 0.610509 0.782939 -9.461228 0.939646 3.147053 1.977476 0.378564 1.368248 -16.132857 -11.358020 52.673292 -83.998198 -25.678285 32.228474 25.638490 7.459038 -9.380267 2.074351 0.967181 12.791943 -24.038475 -4.494310 65.715452 -38.400348 -82.025223 22.366409 -20.607725 24.538398 3.478354 -20.207201 -1.946806 -36.278660 73.494911 -38.756839 5.035194 -12.947281 10.128499 -0.042062 -0.133903 -0.006020 -5.098257 -19.429838 9.668419 53.858116 78.697739 52.068108 4.397645 -15.185316 -16.507930 0.113336 0.101579 0.051883
-214.690542 58.013234 26.167078 175.283761 -51.712686 -3.796446 4.797866 22.864414 3.577785 2.480679 13.109796 1.834636 3.175482 16.357798 2.403305 2.469231 13.097457 1.836946 0.509673 14.186639 0.614039 0.721819 -9.450832 0.958535 3.154995 1.949022 0.377802 1.557852 -16.191126 -11.507621 49.998714 -83.998690 -23.031468 32.274657 25.655324 7.335795 -9.407747 2.004964 0.896628 12.294217 -24.193763 -4.198568 65.321146 -38.274685 -81.806670 22.344082 -20.507395 24.509443 3.467634 -20.204615 -1.945864 -36.235479 73.497611 -38.744718 5.028533 -12.956817 10.147378 -0.049671 -0.130536 -0.014039 -5.093140 -19.430263 9.663571 53.841838 78.698412 52.047129 4.395108 -15.188472 -16.502023 0.110684 0.104952 0.052180
-214.691413 58.012877 26.166255 175.287340 -51.703597 -3.793720 4.804467 22.867192 3.572045 2.489426 13.113264 1.834424 3.180448 16.360128 2.400065 2.473259 13.099314 1.834202 0.477874 14.190352 0.616890 0.660942 -9.443888 0.976049 3.148475 1.923810 0.387811 1.718577 -16.257337 -11.630562 46.496097 -84.005737 -19.533326 32.283256 25.672633 7.188752 -9.440472 1.960260 0.875496 11.801831 -24.372790 -3.947154 64.931312 -38.168211 -81.583551 22.316064 -20.403160 24.474436 3.465949 -20.212288 -1.941610 -36.217315 73.499484 -38.743053 5.011795 -12.958814 10.160351 -0.049484 -0.129494 -0.015241 -5.093275 -19.438275 9.661919 53.838850 78.695328 52.041257 4.392131 -15.190494 -16.500325 0.109193 0.108645 0.052448
